<svg id="visual" viewBox="0 0 900 600" width="900" height="600" xmlns="http://www.w3.org/2000/svg" xmlns:xlink="http://www.w3.org/1999/xlink" version="1.1"><rect x="0" y="0" width="900" height="600" fill="#17141d"></rect><path d="M0 336L21.5 323.8C43 311.7 86 287.3 128.8 290.3C171.7 293.3 214.3 323.7 257.2 326.2C300 328.7 343 303.3 385.8 297C428.7 290.7 471.3 303.3 514.2 309.3C557 315.3 600 314.7 642.8 319.8C685.7 325 728.3 336 771.2 337C814 338 857 329 878.5 324.5L900 320L900 601L878.5 601C857 601 814 601 771.2 601C728.3 601 685.7 601 642.8 601C600 601 557 601 514.2 601C471.3 601 428.7 601 385.8 601C343 601 300 601 257.2 601C214.3 601 171.7 601 128.8 601C86 601 43 601 21.5 601L0 601Z" fill="#322251"></path><path d="M0 337L21.5 339.2C43 341.3 86 345.7 128.8 347.5C171.7 349.3 214.3 348.7 257.2 351C300 353.3 343 358.7 385.8 357.2C428.7 355.7 471.3 347.3 514.2 335.5C557 323.7 600 308.3 642.8 311C685.7 313.7 728.3 334.3 771.2 344C814 353.7 857 352.3 878.5 351.7L900 351L900 601L878.5 601C857 601 814 601 771.2 601C728.3 601 685.7 601 642.8 601C600 601 557 601 514.2 601C471.3 601 428.7 601 385.8 601C343 601 300 601 257.2 601C214.3 601 171.7 601 128.8 601C86 601 43 601 21.5 601L0 601Z" fill="#562b60"></path><path d="M0 391L21.5 387.7C43 384.3 86 377.7 128.8 381.8C171.7 386 214.3 401 257.2 406.5C300 412 343 408 385.8 400.8C428.7 393.7 471.3 383.3 514.2 389.3C557 395.3 600 417.7 642.8 415.3C685.7 413 728.3 386 771.2 370C814 354 857 349 878.5 346.5L900 344L900 601L878.5 601C857 601 814 601 771.2 601C728.3 601 685.7 601 642.8 601C600 601 557 601 514.2 601C471.3 601 428.7 601 385.8 601C343 601 300 601 257.2 601C214.3 601 171.7 601 128.8 601C86 601 43 601 21.5 601L0 601Z" fill="#7a346a"></path><path d="M0 422L21.5 429.3C43 436.7 86 451.3 128.8 449.2C171.7 447 214.3 428 257.2 420.5C300 413 343 417 385.8 426.5C428.7 436 471.3 451 514.2 446.7C557 442.3 600 418.7 642.8 417.2C685.7 415.7 728.3 436.3 771.2 434.8C814 433.3 857 409.7 878.5 397.8L900 386L900 601L878.5 601C857 601 814 601 771.2 601C728.3 601 685.7 601 642.8 601C600 601 557 601 514.2 601C471.3 601 428.7 601 385.8 601C343 601 300 601 257.2 601C214.3 601 171.7 601 128.8 601C86 601 43 601 21.5 601L0 601Z" fill="#9e3e70"></path><path d="M0 487L21.5 485.2C43 483.3 86 479.7 128.8 474C171.7 468.3 214.3 460.7 257.2 454.3C300 448 343 443 385.8 446C428.7 449 471.3 460 514.2 470.5C557 481 600 491 642.8 487.5C685.7 484 728.3 467 771.2 457C814 447 857 444 878.5 442.5L900 441L900 601L878.5 601C857 601 814 601 771.2 601C728.3 601 685.7 601 642.8 601C600 601 557 601 514.2 601C471.3 601 428.7 601 385.8 601C343 601 300 601 257.2 601C214.3 601 171.7 601 128.8 601C86 601 43 601 21.5 601L0 601Z" fill="#c04b71"></path><path d="M0 524L21.5 518.5C43 513 86 502 128.8 493.8C171.7 485.7 214.3 480.3 257.2 479.8C300 479.3 343 483.7 385.8 484C428.7 484.3 471.3 480.7 514.2 480C557 479.3 600 481.7 642.8 485.5C685.7 489.3 728.3 494.7 771.2 500.5C814 506.3 857 512.7 878.5 515.8L900 519L900 601L878.5 601C857 601 814 601 771.2 601C728.3 601 685.7 601 642.8 601C600 601 557 601 514.2 601C471.3 601 428.7 601 385.8 601C343 601 300 601 257.2 601C214.3 601 171.7 601 128.8 601C86 601 43 601 21.5 601L0 601Z" fill="#e05c6e"></path><path d="M0 528L21.5 530C43 532 86 536 128.8 537.7C171.7 539.3 214.3 538.7 257.2 535.7C300 532.7 343 527.3 385.8 532.8C428.7 538.3 471.3 554.7 514.2 559.8C557 565 600 559 642.8 555.3C685.7 551.7 728.3 550.3 771.2 547.5C814 544.7 857 540.3 878.5 538.2L900 536L900 601L878.5 601C857 601 814 601 771.2 601C728.3 601 685.7 601 642.8 601C600 601 557 601 514.2 601C471.3 601 428.7 601 385.8 601C343 601 300 601 257.2 601C214.3 601 171.7 601 128.8 601C86 601 43 601 21.5 601L0 601Z" fill="#fa7268"></path></svg>