<svg id="Layer_1" data-name="Layer 1" xmlns="http://www.w3.org/2000/svg" viewBox="0 0 284.9 284.9"><defs><style>.cls-1{fill:#f75757;}.cls-2{fill:#424242;}.cls-3,.cls-4{fill:#fff;}.cls-4{stroke:#424242;stroke-miterlimit:10;stroke-width:8px;}</style></defs><path class="cls-1" d="M197.58,138.55a48.94,48.94,0,0,0-95.16,0H11c5.83-72,66.27-128,139-128s133.14,56,139,128Z" transform="translate(-7.55 -7.55)"/><path class="cls-2" d="M150,13.55a136.51,136.51,0,0,1,135.68,122H199.9a52,52,0,0,0-99.8,0H14.32A136.51,136.51,0,0,1,150,13.55m0-6a142.43,142.43,0,0,0-142.19,134h97a45.94,45.94,0,0,1,90.32,0h97A142.43,142.43,0,0,0,150,7.55Z" transform="translate(-7.55 -7.55)"/><path class="cls-3" d="M150,289.45c-73.77,0-134.91-57.62-139.19-131.17-.18-2.65-.26-5.35-.26-8.28,0-1.9,0-3.7.11-5.45h96.68l.45-2.45a42.94,42.94,0,0,1,84.42,0l.45,2.45h96.68c.07,1.75.11,3.58.11,5.45,0,2.93-.08,5.63-.25,8.26C284.91,231.83,223.77,289.45,150,289.45Z" transform="translate(-7.55 -7.55)"/><path class="cls-2" d="M150,110.06a39.92,39.92,0,0,1,39.26,32.59l.91,4.9h96.26c0,.8,0,1.61,0,2.45,0,2.87-.08,5.51-.25,8.1-4.19,72-64,128.35-136.2,128.35A136.49,136.49,0,0,1,13.8,158.06c-.17-2.55-.25-5.19-.25-8.06,0-.84,0-1.65,0-2.45h96.26l.91-4.9A39.92,39.92,0,0,1,150,110.06m0-6a46,46,0,0,0-45.16,37.49h-97c-.18,2.79-.26,5.62-.26,8.45s.08,5.66.26,8.45a142.44,142.44,0,0,0,284.38,0c.18-2.79.26-5.62.26-8.45s-.08-5.66-.26-8.45h-97A46,46,0,0,0,150,104.06Z" transform="translate(-7.55 -7.55)"/><path class="cls-4" d="M195.94,150a45.25,45.25,0,0,1-.78,8.45,45.94,45.94,0,0,1-90.32,0,46.16,46.16,0,0,1,0-16.9,45.94,45.94,0,0,1,90.32,0A45.25,45.25,0,0,1,195.94,150Z" transform="translate(-7.55 -7.55)"/></svg>